<?xml version="1.0" standalone="no"?>
<!DOCTYPE svg PUBLIC "-//W3C//DTD SVG 20010904//EN"
 "http://www.w3.org/TR/2001/REC-SVG-20010904/DTD/svg10.dtd">
<svg version="1.0" xmlns="http://www.w3.org/2000/svg"
 width="260.000000pt" height="260.000000pt" viewBox="0 0 260.000000 260.000000"
 preserveAspectRatio="xMidYMid meet">
<metadata>
Created by potrace 1.11, written by Peter Selinger 2001-2013
</metadata>
<g transform="translate(0.000000,260.000000) scale(0.100000,-0.100000)"
fill="#000000" stroke="none">
<path d="M87 2422 c-16 -17 -17 -109 -17 -1123 l0 -1105 35 -17 c40 -19 229
-25 240 -7 3 6 17 10 31 10 l24 0 0 1114 c0 613 -3 1121 -6 1130 -5 14 -28 16
-149 16 -125 0 -144 -2 -158 -18z"/>
<path d="M940 2421 c-7 -13 -10 -382 -10 -1125 l0 -1105 32 -15 c38 -20 171
-21 228 -4 l40 13 0 811 c0 446 3 814 6 817 6 6 44 -34 44 -46 0 -3 26 -49 58
-104 56 -93 195 -332 232 -397 9 -17 36 -61 58 -99 23 -37 42 -69 42 -71 0 -2
41 -72 90 -156 50 -84 90 -154 90 -156 0 -3 57 -101 90 -154 13 -22 69 -118
96 -165 12 -22 54 -94 92 -159 63 -106 75 -121 109 -132 44 -16 185 -19 211
-5 9 5 25 12 35 15 16 5 17 67 17 1115 0 610 -3 1116 -6 1125 -5 14 -28 16
-149 16 -121 0 -144 -2 -149 -16 -3 -9 -6 -380 -6 -826 0 -569 -3 -809 -11
-806 -9 3 -126 199 -232 388 -16 30 -57 99 -89 153 -32 55 -58 101 -58 103 0
2 -11 21 -23 42 -13 20 -35 57 -49 82 -14 25 -76 133 -138 240 -62 107 -124
215 -138 240 -14 25 -36 62 -49 82 -12 21 -23 40 -23 44 0 3 -8 18 -19 32 -10
15 -33 54 -51 87 -18 33 -47 81 -64 108 l-31 47 -132 0 c-121 0 -133 -2 -143
-19z"/>
</g>
</svg>
