<?xml version="1.0" encoding="utf-8"?>
<!DOCTYPE svg PUBLIC "-//W3C//DTD SVG 1.1//EN" "http://www.w3.org/Graphics/SVG/1.1/DTD/svg11.dtd">
<svg xmlns="http://www.w3.org/2000/svg" xmlns:xlink="http://www.w3.org/1999/xlink" version="1.1" viewBox="0 0 512 512" enable-background="new 0 0 512 512" width="512px" height="512px">
  <g>
    <g>
      <path d="m490.2,358.8l-44.7-44.7c-13.5-13.5-37.5-12.5-49.9,1-29.1,32.3-40.6,36.4-43.7,37.5-5.2,1-10.4,1-15.6,1-41.6,0-96.8-31.2-135.2-79.1-32.3-39.5-47.9-82.2-41.6-114.4 1-2.1 5.2-14.6 37.5-43.7 7.3-6.2 11.4-15.6 11.4-25s-4.2-18.7-10.4-25l-44.7-44.7c-11.4-11.4-30.2-13.5-43.7-4.2-44.8,32.3-97.9,76-97.9,107.2-3.55271e-15,133.2 242.4,375.6 375.6,375.6 32.3,0 75.9-53.1 107.2-97.8 9.3-13.5 7.2-32.2-4.3-43.7zm-11.4,33.3c-38.5,54.1-73.9,88.4-90.5,88.4-122.8,0-355.8-233-355.8-355.8 0-17.7 33.3-52 88.4-90.5 5.3-3.4 12-3.2 17.7,3.1l44.7,44.7c6.4,6.8 3.2,17-1,20.8-35.4,32.3-41.6,46.8-43.7,55.1-7.3,38.5 9.4,86.3 45.8,131.1 42.7,52 102,86.3 150.8,86.3 7.3,0 13.5-1 19.8-2.1 8.3-2.1 22.9-8.3 55.1-43.7 5.2-6.2 15.6-6.2 20.8-1l45.8,45.8c5.2,4.3 6.3,12.6 2.1,17.8z" fill="#FFDA44"/>
      <path d="m409.1,108.1c34.3,34.3 48.9,83.2 40.6,130l19.8,3.1c9.4-54.1-8.3-109.2-45.8-147.7-40.6-40.6-98.8-57.2-155-44.7l4.2,19.8c48.8-11.5 99.8,3.1 136.2,39.5z" fill="#FFDA44"/>
      <path d="m393.5,230.9c5.2-30.2-4.2-61.4-26-83.2-22.9-22.9-55.1-32.3-87.4-25l4.2,19.8c25-5.2 51,2.1 68.7,19.8 17.7,17.7 25,41.6 20.8,65.5l19.7,3.1z" fill="#FFDA44"/>
    </g>
  </g>
</svg>
